<svg width="22" height="24" viewBox="0 0 22 24" fill="none" xmlns="http://www.w3.org/2000/svg">
<path d="M5.09464 9.76296L4.83155 8.69595C4.56664 7.62695 5.14872 6.52795 6.12955 6.24295L15.3356 3.56695C16.3073 3.28495 17.3156 3.91996 17.5778 4.97896L19.1856 11.488C19.4496 12.557 18.8666 13.656 17.8876 13.941L15.9498 14.504" stroke="#F59602" stroke-width="1.5" stroke-linecap="round" stroke-linejoin="round"/>
<path fill-rule="evenodd" clip-rule="evenodd" d="M4.58333 20.4999H14.1167C15.1296 20.4999 15.95 19.6049 15.95 18.4999V11.7629C15.95 10.6579 15.1296 9.76294 14.1167 9.76294H4.58333C3.57042 9.76294 2.75 10.6579 2.75 11.7629V18.4999C2.75 19.6049 3.57133 20.4999 4.58333 20.4999Z" stroke="#F59602" stroke-width="1.5" stroke-linecap="round" stroke-linejoin="round"/>
<path d="M2.75 13.8401H15.95" stroke="#F59602" stroke-width="1.5" stroke-linecap="round" stroke-linejoin="round"/>
</svg>
