<svg width="24" height="24" viewBox="0 0 24 24" fill="none" xmlns="http://www.w3.org/2000/svg">
<rect x="2.99609" y="3.99683" width="18.0075" height="16.0067" rx="5" stroke="#F59602" stroke-width="1.5" stroke-linecap="round" stroke-linejoin="round"/>
<path d="M16.0014 16.5019H7.99805" stroke="#F59602" stroke-width="1.5" stroke-linecap="round" stroke-linejoin="round"/>
<path d="M13.674 12.3672C13.674 12.4002 13.6872 12.432 13.7107 12.4552C13.7342 12.4785 13.766 12.4915 13.799 12.4912C13.8497 12.4912 13.8954 12.4606 13.9147 12.4138C13.934 12.3669 13.9231 12.3131 13.8871 12.2774C13.8511 12.2417 13.7972 12.2313 13.7505 12.2509C13.7038 12.2706 13.6736 12.3165 13.674 12.3672" stroke="#F59602" stroke-width="1.5" stroke-linecap="round" stroke-linejoin="round"/>
<path d="M17.2755 12.3672C17.2755 12.4002 17.2888 12.432 17.3122 12.4552C17.3357 12.4785 17.3675 12.4915 17.4006 12.4912C17.4513 12.4912 17.4969 12.4606 17.5162 12.4138C17.5355 12.3669 17.5246 12.3131 17.4887 12.2774C17.4527 12.2417 17.3987 12.2313 17.352 12.2509C17.3054 12.2706 17.2751 12.3165 17.2755 12.3672" stroke="#F59602" stroke-width="1.5" stroke-linecap="round" stroke-linejoin="round"/>
<path d="M10.0724 12.3672C10.0724 12.4002 10.0856 12.432 10.1091 12.4552C10.1326 12.4785 10.1644 12.4915 10.1975 12.4912C10.2481 12.4912 10.2938 12.4606 10.3131 12.4138C10.3324 12.3669 10.3215 12.3131 10.2855 12.2774C10.2496 12.2417 10.1956 12.2313 10.1489 12.2509C10.1022 12.2706 10.072 12.3165 10.0724 12.3672" stroke="#F59602" stroke-width="1.5" stroke-linecap="round" stroke-linejoin="round"/>
<path d="M6.47281 12.3672C6.47281 12.4002 6.48602 12.432 6.5095 12.4552C6.53298 12.4785 6.56479 12.4915 6.59786 12.4912C6.64854 12.4912 6.6942 12.4606 6.71349 12.4138C6.73279 12.3669 6.7219 12.3131 6.68593 12.2774C6.64996 12.2417 6.59601 12.2313 6.54931 12.2509C6.50262 12.2706 6.47241 12.3165 6.47281 12.3672" stroke="#F59602" stroke-width="1.5" stroke-linecap="round" stroke-linejoin="round"/>
<path d="M6.47281 8.74874C6.47281 8.81781 6.5288 8.8738 6.59786 8.8738C6.66693 8.8738 6.72292 8.81781 6.72292 8.74874C6.72292 8.67968 6.66693 8.62369 6.59786 8.62369C6.5288 8.62369 6.47281 8.67968 6.47281 8.74874" stroke="#F59602" stroke-width="1.5" stroke-linecap="round" stroke-linejoin="round"/>
<path d="M10.0724 8.74874C10.0724 8.81781 10.1284 8.8738 10.1975 8.8738C10.2665 8.8738 10.3225 8.81781 10.3225 8.74874C10.3225 8.67968 10.2665 8.62369 10.1975 8.62369C10.1284 8.62369 10.0724 8.67968 10.0724 8.74874" stroke="#F59602" stroke-width="1.5" stroke-linecap="round" stroke-linejoin="round"/>
<path d="M13.674 8.74874C13.674 8.81781 13.73 8.8738 13.799 8.8738C13.8681 8.8738 13.9241 8.81781 13.9241 8.74874C13.9241 8.67968 13.8681 8.62369 13.799 8.62369C13.73 8.62369 13.674 8.67968 13.674 8.74874" stroke="#F59602" stroke-width="1.5" stroke-linecap="round" stroke-linejoin="round"/>
<path d="M17.2755 8.74874C17.2755 8.81781 17.3315 8.8738 17.4006 8.8738C17.4697 8.8738 17.5257 8.81781 17.5257 8.74874C17.5257 8.67968 17.4697 8.62369 17.4006 8.62369C17.3315 8.62369 17.2755 8.67968 17.2755 8.74874" stroke="#F59602" stroke-width="1.5" stroke-linecap="round" stroke-linejoin="round"/>
</svg>
