<svg width="66" height="36" viewBox="0 0 66 36" fill="none" xmlns="http://www.w3.org/2000/svg">
<g clip-path="url(#clip0_1_3549)" filter="url(#filter0_d_1_3549)">
<path d="M4.2782 0.792677C4.2782 0.597574 4.48177 0.489184 4.65855 0.500023C11.3441 0.500023 18.0296 0.500023 24.7151 0.500023C24.9776 0.489184 25.2454 0.53254 25.5079 0.53796C37.6736 0.53254 49.8393 0.53796 62.005 0.53796C61.9782 0.727643 61.9354 0.917326 61.9086 1.10701C60.9497 1.15036 59.9908 1.11243 59.0372 1.12327C51.5535 1.11785 44.0698 1.13411 36.5808 1.11785C36.4951 1.09617 36.404 1.09075 36.3183 1.08533C25.765 1.08533 15.2172 1.08533 4.6639 1.08533C4.48712 1.10159 4.27284 0.993199 4.2782 0.792677ZM27.7793 2.0771C29.2417 2.01749 30.7149 1.98497 32.1773 2.1313C32.7291 2.17465 33.2702 2.29388 33.7898 2.46731C43.1538 2.47814 52.5124 2.46731 61.8764 2.47272C61.8764 2.65699 61.8764 2.83583 61.8764 3.0201C52.6624 3.0201 43.4431 3.0201 34.2291 3.0201C33.6987 2.98216 33.1952 3.19894 32.6702 3.23146C32.4077 3.25855 32.1398 3.26397 31.8774 3.30733C31.6363 3.31817 31.3952 3.30191 31.1595 3.33443C30.6667 3.37778 30.1685 3.31275 29.6703 3.37236C29.4453 3.39946 29.2149 3.39404 28.9899 3.36152C28.5346 3.31275 28.0739 3.39404 27.6239 3.31817C26.6704 3.28023 25.7061 3.22604 24.7794 2.98758C21.1259 2.97674 17.4724 2.98758 13.819 2.98216C13.6529 2.97674 13.4868 2.94422 13.3154 2.94422C10.4066 2.94964 7.49775 2.94422 4.59426 2.94422C4.44427 2.95506 4.25142 2.87377 4.26213 2.68951C4.24606 2.50524 4.43891 2.41311 4.59426 2.42937C7.57274 2.42937 10.5512 2.42937 13.5297 2.42937C14.3225 2.44563 15.1154 2.39143 15.9082 2.46731C18.8653 2.46731 21.8277 2.47272 24.7847 2.46189C25.5775 2.29388 26.3757 2.16381 27.1846 2.12588C27.3828 2.09336 27.5811 2.12588 27.7793 2.0771ZM23.0758 4.03354C24.3401 3.94683 25.6043 3.8818 26.8739 3.89806C28.1221 3.90348 29.3703 3.86554 30.6131 3.96851C30.8167 3.97935 31.0202 3.96851 31.2238 3.97935C31.5345 4.0227 31.8506 4.02812 32.1613 4.05522C32.3541 4.08774 32.547 4.10942 32.7398 4.12568C33.1202 4.17987 33.4844 4.28826 33.8541 4.37497C43.1966 4.37497 52.5339 4.37497 61.8764 4.37497C61.8764 4.55924 61.8764 4.73808 61.8764 4.92234C52.5392 4.92234 43.1966 4.91692 33.8594 4.92776C33.0398 5.05783 32.2148 5.1337 31.3845 5.14996C31.0845 5.20958 30.7738 5.16622 30.4685 5.17706C29.7292 5.25293 28.9846 5.1879 28.24 5.22042C27.806 5.26919 27.3721 5.24209 26.9382 5.24751C26.1775 5.1608 25.4061 5.26377 24.6454 5.18248C23.8365 5.17164 23.0276 5.12828 22.2241 5.05783C21.7741 5.01989 21.3295 4.9386 20.8902 4.85189C16.3689 4.84647 11.8476 4.85189 7.33168 4.85189C7.06919 4.85731 6.80134 4.85731 6.5442 4.81937C5.78351 4.80853 5.02818 4.81937 4.26749 4.81395C4.26749 4.64595 4.26749 4.47252 4.26749 4.30452C4.80854 4.27742 5.3496 4.35871 5.89065 4.34246C10.8405 4.34246 15.7957 4.34246 20.7456 4.34246C20.9652 4.35329 21.1688 4.25574 21.383 4.22323C21.9402 4.12026 22.508 4.06606 23.0758 4.03354ZM3.99964 6.40187C3.99428 6.0225 4.39605 5.78946 4.73354 5.78946C5.71387 5.78946 6.69956 5.78946 7.68524 5.78946C8.08701 5.77863 8.48343 5.81656 8.8852 5.84908C9.19591 5.86534 9.50126 5.91411 9.8066 5.94121C9.95124 5.96831 10.0959 5.99541 10.2405 6.01166C10.8459 6.17967 11.4726 6.06586 12.0833 6.14715C13.9797 6.14715 15.8814 6.14715 17.7778 6.14715C18.1742 6.13089 18.5706 6.23386 18.967 6.16883C19.9206 5.94121 20.9063 5.89785 21.8812 5.83824C22.1866 5.79488 22.4973 5.85992 22.7973 5.79488C23.3383 5.80572 23.874 5.73527 24.4097 5.75153C25.9847 5.75695 27.5543 5.72985 29.1292 5.79488C29.381 5.8545 29.6381 5.81114 29.8899 5.8274C30.6613 5.88702 31.4381 5.91411 32.1988 6.06044C32.3648 6.09296 32.5309 6.15257 32.7023 6.15799C42.4252 6.15799 52.1482 6.15799 61.8711 6.15799C61.8711 6.35309 61.8711 6.5482 61.8711 6.7433C52.341 6.7433 42.8109 6.7433 33.2809 6.7433C32.9541 6.75414 32.622 6.69994 32.3059 6.80833C31.947 6.88963 31.5774 6.9113 31.2184 6.95466C30.656 6.99802 30.0988 7.04137 29.5364 7.04679C29.1399 7.11724 28.7328 7.03053 28.3364 7.10641C26.7079 7.11724 25.0793 7.11724 23.4508 7.10641C22.4919 7.04137 21.5277 7.04137 20.5688 6.96008C20.3277 6.92214 20.0866 6.9113 19.8456 6.88963C19.5188 6.84627 19.2027 6.75414 18.876 6.7162C16.2028 6.7162 13.5243 6.71078 10.8512 6.7162C10.503 6.76498 10.1602 6.84085 9.81196 6.88421C9.61911 6.90046 9.42626 6.92214 9.23341 6.96008C8.84235 6.98176 8.45129 7.01427 8.05487 7.04137C6.92455 7.04137 5.79958 7.04679 4.66926 7.04137C4.34249 7.02511 3.96214 6.76498 3.99964 6.40187ZM23.8472 7.64836C24.2758 7.59416 24.7097 7.62126 25.1436 7.61584C25.4972 7.62126 25.8561 7.59416 26.2097 7.64294C26.8632 7.68087 27.5168 7.61584 28.165 7.68629C28.7114 7.68629 29.2578 7.70797 29.7988 7.75675C30.206 7.75675 30.6077 7.82178 31.0095 7.84888C31.3363 7.8814 31.6577 7.96811 31.9791 8.0223C40.9949 8.02772 50.0107 8.0223 59.0265 8.0223C59.364 8.0223 59.6961 8.01146 60.0336 8.05482C60.6497 8.07108 61.2657 8.05482 61.8764 8.06024C61.8764 8.2445 61.8764 8.42335 61.8764 8.60761C51.9392 8.60761 41.9967 8.60761 32.0595 8.60761C31.2667 8.75394 30.4631 8.85691 29.6542 8.86775C29.3971 8.92736 29.1346 8.87859 28.8774 8.90026C28.3739 8.97072 27.8703 8.89484 27.3668 8.9653C25.8293 8.97072 24.2919 8.9653 22.7544 8.9653C21.2116 8.884 19.6581 8.88942 18.1206 8.68348C17.8581 8.65639 17.6117 8.55342 17.3439 8.56425C16.4278 8.56425 15.5171 8.56425 14.6011 8.56425C14.0493 8.53174 13.519 8.70516 12.9726 8.77561C12.7797 8.79187 12.5869 8.81355 12.394 8.85149C12.0083 8.87859 11.6226 8.87859 11.2369 8.92194C9.29769 8.9382 7.35311 8.93278 5.41388 8.92194C5.2371 8.88942 5.04425 8.89484 4.89425 8.77561C4.61033 8.60761 4.56212 8.16863 4.78176 7.93017C4.97461 7.69171 5.30138 7.6592 5.5853 7.64836C7.05312 7.64836 8.52093 7.64294 9.98874 7.65378C10.5727 7.72423 11.1566 7.66462 11.7405 7.69713C11.9333 7.74049 12.1369 7.71339 12.3297 7.75133C12.9404 7.81094 13.5458 7.93017 14.1458 8.0494C15.0886 8.07108 16.0314 8.0494 16.9742 8.06024C17.601 8.1036 18.201 7.8814 18.8224 7.8543C20.5045 7.70255 22.1705 7.64836 23.8472 7.64836ZM5.39245 9.6319C5.5853 9.51809 5.81565 9.55602 6.02993 9.5506C8.45664 9.5506 10.8887 9.5506 13.3154 9.5506C13.8083 9.58312 14.2958 9.59396 14.7832 9.66983C15.1743 9.75113 15.5761 9.83784 15.9778 9.80532C16.6903 9.77822 17.4082 9.87036 18.1153 9.74029C18.7045 9.68609 19.2938 9.659 19.8777 9.62106C20.2099 9.62106 20.5473 9.63732 20.8795 9.58854C22.6098 9.5777 24.3454 9.58854 26.0757 9.58312C27.2382 9.64274 28.4007 9.64816 29.5631 9.74029C29.9113 9.77822 30.2595 9.81616 30.6077 9.87578C33.7094 9.8812 36.8165 9.87578 39.9235 9.87578C40.0896 9.87578 40.2557 9.90829 40.4217 9.91371C47.5733 9.91371 54.7249 9.91371 61.8764 9.91371C61.8764 10.098 61.8764 10.2768 61.8764 10.4611C51.5268 10.4611 41.1824 10.4611 30.8327 10.4611C30.4578 10.4828 30.0988 10.6074 29.7238 10.6182C29.5524 10.6453 29.3756 10.6399 29.2042 10.6724C28.8185 10.6995 28.4328 10.6995 28.0525 10.7483C27.7525 10.77 27.4525 10.7429 27.1525 10.7592C26.4829 10.8404 25.8079 10.7429 25.1436 10.8242C24.174 10.8242 23.199 10.835 22.2294 10.8188C21.6937 10.7375 21.142 10.835 20.6063 10.7592C19.942 10.77 19.2885 10.6995 18.6242 10.6724C18.2974 10.6237 17.9653 10.5912 17.6385 10.537C16.9475 10.5261 16.251 10.5315 15.5546 10.537C15.1529 10.5966 14.7565 10.705 14.3547 10.7483C14.0547 10.7483 13.7601 10.7592 13.4601 10.7917C10.9155 10.7971 8.36558 10.7917 5.82101 10.7917C5.49424 10.8079 5.10318 10.6399 5.03354 10.2822C4.96925 10.0058 5.16746 9.75655 5.39245 9.6319ZM6.01922 11.8864C6.11565 11.5016 6.5442 11.3607 6.89241 11.3716C7.44418 11.3878 8.0013 11.3445 8.54771 11.4041C9.79589 11.442 11.0548 11.3661 12.303 11.4474C13.2779 11.4312 14.2583 11.4691 15.2279 11.545C15.5868 11.5612 15.9403 11.5992 16.2939 11.6425C16.8082 11.7022 17.3278 11.6751 17.8367 11.5829C19.7063 11.3878 21.592 11.4637 23.4723 11.4474C24.0133 11.4637 24.5651 11.4095 25.1061 11.4745C25.5186 11.5016 25.9365 11.4529 26.349 11.5125C26.6329 11.545 26.9221 11.4854 27.2007 11.5504C27.7257 11.5504 28.2507 11.61 28.7703 11.6371C29.0757 11.6751 29.381 11.7184 29.6863 11.7672C37.3093 11.7834 44.9377 11.7618 52.5606 11.778C52.6464 11.7943 52.7321 11.8051 52.8178 11.8105C55.8338 11.8105 58.8551 11.8105 61.8711 11.8105C61.8711 11.9948 61.8711 12.1736 61.8711 12.3579C51.1839 12.3579 40.4967 12.3525 29.8149 12.3579C28.9257 12.5368 28.015 12.5801 27.1096 12.6397C26.8364 12.656 26.5632 12.6343 26.29 12.656C25.6686 12.7319 25.0365 12.6343 24.4151 12.7156C23.4776 12.721 22.5348 12.721 21.5973 12.7156C21.0723 12.6451 20.542 12.721 20.017 12.6506C19.2135 12.6451 18.4046 12.591 17.6064 12.4934C16.9367 12.3362 16.2457 12.4717 15.5761 12.5639C15.3136 12.6018 15.0457 12.5964 14.7832 12.6397C14.0547 12.6343 13.3261 12.7427 12.5976 12.6506C11.2476 12.6397 9.89767 12.656 8.55307 12.6451C7.89952 12.5747 7.24597 12.6343 6.59242 12.6072C6.48528 12.5964 6.38349 12.553 6.27635 12.5259C6.10493 12.3633 5.91744 12.1357 6.01922 11.8864ZM8.01202 13.2088C8.50486 13.1871 9.00306 13.1871 9.4959 13.2359C11.3441 13.2359 13.1922 13.2359 15.0457 13.2359C15.5011 13.2196 15.9564 13.2955 16.4171 13.2738C17.5474 13.3985 18.6778 13.1979 19.8081 13.2359C20.7027 13.263 21.592 13.16 22.4866 13.2088C22.958 13.263 23.4401 13.225 23.9115 13.2359C24.4258 13.2738 24.9401 13.2955 25.4543 13.3172C26.2418 13.3876 27.0239 13.496 27.806 13.599C39.1628 13.6044 50.5196 13.599 61.8764 13.599C61.8764 13.7832 61.8764 13.9621 61.8764 14.1463C50.8786 14.1463 39.886 14.1463 28.8882 14.1463C28.3953 14.1626 27.9025 14.1084 27.4203 14.1951C26.8632 14.2818 26.3061 14.3306 25.749 14.3956C25.2722 14.4282 24.8008 14.4824 24.324 14.4878C24.0562 14.5528 23.783 14.4824 23.5151 14.5474C23.0491 14.5637 22.5776 14.5366 22.1116 14.5907C20.8045 14.5745 19.4974 14.6287 18.1903 14.5474C17.8689 14.4878 17.5367 14.5311 17.2099 14.5203C16.6903 14.5366 16.1653 14.4824 15.6511 14.5474C15.0886 14.5582 14.5261 14.5745 13.969 14.5203C12.2601 14.5203 10.5512 14.5203 8.8477 14.5203C8.60664 14.5203 8.36022 14.504 8.12451 14.5528C7.77631 14.5474 7.35311 14.374 7.32097 13.9783C7.25132 13.5556 7.63167 13.2305 8.01202 13.2088ZM9.37269 15.4687C9.50661 15.1327 9.8816 15.0243 10.2084 15.0514C11.028 15.0839 11.8423 15.0026 12.6619 15.0189C14.0547 15.0189 15.4529 15.0189 16.8457 15.0189C17.1992 15.0243 17.5582 14.9972 17.9117 15.0406C18.3349 15.0731 18.7581 15.0351 19.1813 15.0622C19.8777 15.1164 20.5795 15.1435 21.2705 15.2086C21.5116 15.2411 21.7527 15.2628 21.9937 15.279C22.1866 15.3115 22.3741 15.3332 22.5723 15.3549C22.7651 15.3874 22.958 15.4091 23.1508 15.4308C23.5473 15.4904 23.949 15.447 24.3454 15.4199C32.4452 15.4199 40.5449 15.4199 48.6447 15.4199C49.5072 15.4037 50.375 15.4579 51.2428 15.382C54.7892 15.382 58.3355 15.382 61.8818 15.382C61.8818 15.5663 61.8818 15.7451 61.8818 15.9294C61.6193 15.9294 61.3568 15.9239 61.0943 15.9348C60.8908 15.9781 60.6818 15.9619 60.4729 15.9619C54.4624 15.9619 48.4518 15.9619 42.4413 15.9619C41.7235 15.9727 41.0003 15.9294 40.2771 15.9998C34.7969 15.9998 29.3167 15.9998 23.8365 15.9998C23.574 15.9998 23.3115 15.989 23.0544 16.0323C21.9777 16.1841 20.8902 16.2762 19.8027 16.3304C19.417 16.325 19.0313 16.3196 18.6456 16.3629C17.9706 16.3521 17.2957 16.3954 16.626 16.325C15.4475 16.325 14.269 16.3304 13.0904 16.325C12.9779 16.325 12.8708 16.3304 12.7637 16.3575C11.8208 16.3738 10.878 16.3629 9.94053 16.3629C9.51733 16.3629 9.14234 15.8698 9.37269 15.4687ZM12.6619 17.5661C12.6887 17.1759 13.0851 16.9103 13.4493 16.9157C16.551 16.9103 19.6527 16.9157 22.7544 16.9157C23.3865 16.9862 24.024 16.932 24.6615 16.9591C24.9133 17.0133 25.1704 16.9753 25.4222 16.9916C26.0329 17.0404 26.6436 17.062 27.2543 17.1108C27.8971 17.165 28.5346 17.2355 29.1721 17.3168C35.5147 17.3222 41.8628 17.3168 48.2054 17.3168C48.8054 17.3059 49.4107 17.3439 50.0054 17.2788C53.9749 17.2788 57.9444 17.2788 61.9086 17.2788C61.8711 17.4577 61.8604 17.6419 61.8657 17.8262C60.7729 17.8425 59.6747 17.7883 58.5872 17.8641C53.3481 17.8587 48.109 17.8641 42.8699 17.8641C42.4467 17.8804 42.0181 17.8262 41.6003 17.8912C37.6254 17.9075 33.6505 17.8966 29.6756 17.8966C29.3274 17.875 28.9846 17.9563 28.6364 17.9779C28.5132 17.9996 28.3846 18.0105 28.2614 18.0321C27.3775 18.1026 26.4936 18.1893 25.6097 18.1947C24.9454 18.276 24.2704 18.173 23.6062 18.2543C23.1669 18.2652 22.7276 18.2652 22.2884 18.2543C22.1812 18.2272 22.0687 18.2218 21.9562 18.2218C19.0742 18.2272 16.1921 18.2164 13.3101 18.2272C12.9672 18.2381 12.6512 17.9292 12.6619 17.5661ZM15.3082 19.0781C15.4796 18.8451 15.7796 18.7638 16.0528 18.7746C16.9153 18.78 17.7831 18.7692 18.6456 18.78C19.342 18.8613 20.0438 18.7638 20.7402 18.8396C20.9813 18.8613 21.2223 18.8451 21.458 18.818C21.833 18.78 22.2134 18.8505 22.5884 18.78C22.8348 18.7746 23.0812 18.7746 23.3276 18.7421C23.9544 18.715 24.5865 18.7746 25.2133 18.7042C25.7168 18.6716 26.2204 18.7638 26.7239 18.7367C27.2382 18.715 27.7525 18.7692 28.2668 18.78C28.4596 18.8234 28.6632 18.7963 28.8614 18.8342C29.1935 18.8613 29.5256 18.8938 29.8578 18.9264C30.0506 18.9589 30.2435 18.9806 30.4363 18.9968C30.7952 19.051 31.1542 19.1215 31.5184 19.1431C31.7488 19.1865 31.9791 19.1648 32.2095 19.1702C42.0985 19.1702 51.9928 19.1702 61.8818 19.1702C61.8818 19.3545 61.8818 19.5333 61.8818 19.7176C51.9446 19.7176 42.002 19.7176 32.0648 19.7176C31.347 19.6851 30.6452 19.8639 29.9328 19.9235C29.3114 19.994 28.6792 20.0211 28.0578 20.0753C27.5168 20.0645 26.9811 20.1349 26.4454 20.1186C25.4597 20.1186 24.474 20.1186 23.4883 20.1186C23.1187 20.0699 22.7437 20.0916 22.3741 20.0753C22.1919 20.0319 22.0098 20.0482 21.8277 20.0428C20.842 20.0428 19.8563 20.0428 18.8706 20.0428C18.0778 20.1132 17.2796 20.0645 16.4868 20.0807C16.1011 20.059 15.6618 20.1783 15.3404 19.8964C15.2921 19.8206 15.2439 19.7447 15.1957 19.6688C15.1636 19.4737 15.1582 19.2407 15.3082 19.0781ZM14.794 21.1971C14.8957 20.8449 15.2761 20.666 15.6189 20.6714C16.7332 20.6769 17.8528 20.6606 18.967 20.6769C19.5884 20.7256 20.2206 20.7473 20.842 20.8232C21.1795 20.872 21.517 20.9099 21.8544 20.9749C22.4651 21.0779 23.0598 20.8394 23.6705 20.8232C24.0776 20.7798 24.4901 20.7961 24.8972 20.7473C26.2525 20.7202 27.6078 20.6552 28.9632 20.7419C29.2631 20.7419 29.5631 20.7311 29.8578 20.7473C30.3131 20.7961 30.7685 20.7852 31.2292 20.8232C31.4702 20.8611 31.7113 20.872 31.9523 20.8991C32.4184 20.9912 32.8898 21.0074 33.3612 21.0345C41.0539 21.0345 48.7465 21.0345 56.4391 21.0345C56.6159 21.0345 56.7927 21.0345 56.9694 21.04C57.4623 21.105 57.9605 21.0508 58.4533 21.0671C59.5944 21.0671 60.7354 21.0671 61.8818 21.0671C61.8818 21.2513 61.8818 21.4302 61.8818 21.6144C54.9016 21.6144 47.9161 21.6144 40.936 21.6144C40.6199 21.6361 40.3092 21.5657 39.9932 21.5765C37.8075 21.5819 35.6219 21.5765 33.4362 21.5765C33.1255 21.5873 32.8041 21.544 32.4988 21.6199C32.1827 21.6957 31.8559 21.7445 31.5292 21.7716C31.2399 21.8095 30.956 21.8312 30.6667 21.8421C30.0453 21.8854 29.4185 21.9071 28.7917 21.9125C28.6846 21.9342 28.5721 21.945 28.4596 21.945C27.64 21.9396 26.8257 21.945 26.0061 21.945C25.915 21.945 25.8293 21.9342 25.7436 21.9179C25.0526 21.9179 24.3615 21.8692 23.6705 21.8258C23.4562 21.7933 23.2365 21.777 23.0223 21.7553C22.4544 21.5928 21.8491 21.6361 21.2759 21.7553C21.083 21.7716 20.8902 21.7933 20.6973 21.8312C20.3116 21.8746 19.9259 21.8583 19.5402 21.9071C18.1635 21.9233 16.7867 21.9125 15.41 21.9125C15.0457 21.9233 14.7136 21.5765 14.794 21.1971ZM15.8761 22.5737C16.3903 22.5466 16.9046 22.6008 17.4189 22.5412C17.8796 22.5195 18.3349 22.5249 18.7956 22.5683C19.5295 22.5466 20.2581 22.655 20.9866 22.7254C21.7205 22.7959 22.4491 22.9639 23.1883 22.9314C23.5419 22.9205 23.9008 22.9476 24.2597 22.9151C24.9133 22.7905 25.5829 22.7254 26.2472 22.7038C26.5954 22.6387 26.9543 22.7092 27.3025 22.6441C29.0435 22.6279 30.7845 22.6116 32.5202 22.7905C32.7988 22.823 33.072 22.8989 33.3505 22.926C41.8628 22.926 50.3696 22.926 58.8819 22.926C59.8729 23.0018 60.8747 22.9476 61.8711 22.9639C61.8711 23.1482 61.8711 23.327 61.8711 23.5113C52.341 23.5113 42.8109 23.5113 33.2809 23.5113C32.6755 23.6197 32.0648 23.7226 31.4488 23.7389C30.0613 23.8419 28.6578 23.7985 27.265 23.7931C26.9971 23.728 26.7239 23.7985 26.4561 23.7335C25.7168 23.7118 24.9776 23.6522 24.2597 23.4896C23.858 23.4516 23.4508 23.4842 23.0437 23.4733C22.5723 23.4516 22.1116 23.56 21.6402 23.5926C20.8848 23.6901 20.1241 23.7497 19.3688 23.7985C18.1903 23.7985 17.0117 23.7985 15.8332 23.7985C15.5064 23.7985 15.1636 23.5275 15.185 23.1807C15.2225 22.8392 15.5493 22.6062 15.8761 22.5737ZM16.8885 24.4814C17.2582 24.3025 17.6814 24.3675 18.0724 24.3567C18.3724 24.3675 18.6831 24.3242 18.9777 24.3838C19.3635 24.3892 19.7492 24.3946 20.1295 24.4543C20.9116 24.503 21.683 24.6385 22.4598 24.7198C24.5544 24.7252 26.6436 24.7198 28.7382 24.7252C28.9149 24.7252 29.1024 24.7361 29.2739 24.6819C30.6077 24.335 32.0166 24.4326 33.3452 24.7577C42.8538 24.7632 52.3624 24.7577 61.8711 24.7577C61.8711 24.9529 61.8711 25.148 61.8711 25.3431C55.057 25.3431 48.2429 25.3431 41.4288 25.3431C41.0914 25.3647 40.7592 25.2943 40.4217 25.3051C38.2361 25.3105 36.0451 25.3051 33.8594 25.3051C33.5969 25.3105 33.3291 25.278 33.0773 25.3647C32.6863 25.4948 32.2738 25.5707 31.8666 25.6249C31.4595 25.652 31.047 25.7116 30.6399 25.6465C30.1203 25.6249 29.6006 25.5219 29.1078 25.3539C28.9632 25.2943 28.8132 25.3051 28.6632 25.3051C26.6168 25.3105 24.5651 25.2943 22.5187 25.316C21.5973 25.4514 20.6759 25.5544 19.7545 25.6303C18.9777 25.6465 18.1956 25.6303 17.4189 25.6411C17.1296 25.6465 16.7867 25.5869 16.626 25.316C16.4493 25.0233 16.5993 24.6277 16.8885 24.4814ZM18.9081 26.9689C18.8545 26.557 19.2777 26.2319 19.6581 26.2535C20.0491 26.221 20.3652 26.492 20.7402 26.5624C20.9973 26.6383 21.2705 26.6221 21.5384 26.6221C31.7274 26.6221 41.9163 26.6221 52.1107 26.6221C53.1928 26.6979 54.2749 26.6437 55.357 26.66C57.5319 26.66 59.7069 26.66 61.8818 26.66C61.8818 26.8443 61.8818 27.0231 61.8818 27.2074C48.2644 27.2074 34.6469 27.2074 21.0295 27.2074C20.5902 27.2019 20.2045 27.4783 19.7652 27.4892C19.401 27.5651 18.9617 27.3645 18.9081 26.9689Z" fill="#356CFA"/>
</g>
<defs>
<filter id="filter0_d_1_3549" x="0" y="0.5" width="66" height="35" filterUnits="userSpaceOnUse" color-interpolation-filters="sRGB">
<feFlood flood-opacity="0" result="BackgroundImageFix"/>
<feColorMatrix in="SourceAlpha" type="matrix" values="0 0 0 0 0 0 0 0 0 0 0 0 0 0 0 0 0 0 127 0" result="hardAlpha"/>
<feOffset dy="4"/>
<feGaussianBlur stdDeviation="2"/>
<feComposite in2="hardAlpha" operator="out"/>
<feColorMatrix type="matrix" values="0 0 0 0 0 0 0 0 0 0 0 0 0 0 0 0 0 0 0.25 0"/>
<feBlend mode="normal" in2="BackgroundImageFix" result="effect1_dropShadow_1_3549"/>
<feBlend mode="normal" in="SourceGraphic" in2="effect1_dropShadow_1_3549" result="shape"/>
</filter>
<clipPath id="clip0_1_3549">
<rect width="58" height="27" fill="white" transform="translate(4 0.5)"/>
</clipPath>
</defs>
</svg>
